<svg id="visual" viewBox="0 0 900 600" width="900" height="600" xmlns="http://www.w3.org/2000/svg" xmlns:xlink="http://www.w3.org/1999/xlink" version="1.1"><rect x="0" y="0" width="900" height="600" fill="#9d0000"></rect><path d="M0 258L180 268L360 265L540 247L720 270L900 245L900 601L720 601L540 601L360 601L180 601L0 601Z" fill="#5d0000"></path><path d="M0 323L180 326L360 333L540 317L720 311L900 309L900 601L720 601L540 601L360 601L180 601L0 601Z" fill="#830007"></path><path d="M0 405L180 375L360 397L540 414L720 374L900 402L900 601L720 601L540 601L360 601L180 601L0 601Z" fill="#ab0009"></path><path d="M0 455L180 467L360 479L540 474L720 448L900 476L900 601L720 601L540 601L360 601L180 601L0 601Z" fill="#d40007"></path><path d="M0 539L180 535L360 530L540 512L720 529L900 529L900 601L720 601L540 601L360 601L180 601L0 601Z" fill="#ff0000"></path></svg>