<svg id="visual" viewBox="0 0 900 600" width="900" height="600" xmlns="http://www.w3.org/2000/svg" xmlns:xlink="http://www.w3.org/1999/xlink" version="1.1"><rect x="0" y="0" width="900" height="600" fill="#750000"></rect><path d="M0 142L21.5 142.7C43 143.3 86 144.7 128.8 149.7C171.7 154.7 214.3 163.3 257.2 167.2C300 171 343 170 385.8 171.2C428.7 172.3 471.3 175.7 514.2 171C557 166.3 600 153.7 642.8 144.5C685.7 135.3 728.3 129.7 771.2 138.8C814 148 857 172 878.5 184L900 196L900 601L878.5 601C857 601 814 601 771.2 601C728.3 601 685.7 601 642.8 601C600 601 557 601 514.2 601C471.3 601 428.7 601 385.8 601C343 601 300 601 257.2 601C214.3 601 171.7 601 128.8 601C86 601 43 601 21.5 601L0 601Z" fill="#e60f00"></path><path d="M0 258L21.5 251.7C43 245.3 86 232.7 128.8 225.7C171.7 218.7 214.3 217.3 257.2 209.3C300 201.3 343 186.7 385.8 190C428.7 193.3 471.3 214.7 514.2 243C557 271.3 600 306.7 642.8 318C685.7 329.3 728.3 316.7 771.2 292.7C814 268.7 857 233.3 878.5 215.7L900 198L900 601L878.5 601C857 601 814 601 771.2 601C728.3 601 685.7 601 642.8 601C600 601 557 601 514.2 601C471.3 601 428.7 601 385.8 601C343 601 300 601 257.2 601C214.3 601 171.7 601 128.8 601C86 601 43 601 21.5 601L0 601Z" fill="#cc0804"></path><path d="M0 394L21.5 369.3C43 344.7 86 295.3 128.8 290.3C171.7 285.3 214.3 324.7 257.2 326.2C300 327.7 343 291.3 385.8 276.5C428.7 261.7 471.3 268.3 514.2 287.3C557 306.3 600 337.7 642.8 336.2C685.7 334.7 728.3 300.3 771.2 287C814 273.7 857 281.3 878.5 285.2L900 289L900 601L878.5 601C857 601 814 601 771.2 601C728.3 601 685.7 601 642.8 601C600 601 557 601 514.2 601C471.3 601 428.7 601 385.8 601C343 601 300 601 257.2 601C214.3 601 171.7 601 128.8 601C86 601 43 601 21.5 601L0 601Z" fill="#b30306"></path><path d="M0 353L21.5 365.3C43 377.7 86 402.3 128.8 405.5C171.7 408.7 214.3 390.3 257.2 377.2C300 364 343 356 385.8 364.2C428.7 372.3 471.3 396.7 514.2 406.7C557 416.7 600 412.3 642.8 403.2C685.7 394 728.3 380 771.2 381C814 382 857 398 878.5 406L900 414L900 601L878.5 601C857 601 814 601 771.2 601C728.3 601 685.7 601 642.8 601C600 601 557 601 514.2 601C471.3 601 428.7 601 385.8 601C343 601 300 601 257.2 601C214.3 601 171.7 601 128.8 601C86 601 43 601 21.5 601L0 601Z" fill="#9a0106"></path><path d="M0 397L21.5 404.7C43 412.3 86 427.7 128.8 431.8C171.7 436 214.3 429 257.2 424.2C300 419.3 343 416.7 385.8 416.5C428.7 416.3 471.3 418.7 514.2 422.8C557 427 600 433 642.8 442.5C685.7 452 728.3 465 771.2 468.7C814 472.3 857 466.7 878.5 463.8L900 461L900 601L878.5 601C857 601 814 601 771.2 601C728.3 601 685.7 601 642.8 601C600 601 557 601 514.2 601C471.3 601 428.7 601 385.8 601C343 601 300 601 257.2 601C214.3 601 171.7 601 128.8 601C86 601 43 601 21.5 601L0 601Z" fill="#810004"></path><path d="M0 556L21.5 548C43 540 86 524 128.8 515.2C171.7 506.3 214.3 504.7 257.2 511C300 517.3 343 531.7 385.8 532C428.7 532.3 471.3 518.7 514.2 514.2C557 509.7 600 514.3 642.8 512.8C685.7 511.3 728.3 503.7 771.2 508.2C814 512.7 857 529.3 878.5 537.7L900 546L900 601L878.5 601C857 601 814 601 771.2 601C728.3 601 685.7 601 642.8 601C600 601 557 601 514.2 601C471.3 601 428.7 601 385.8 601C343 601 300 601 257.2 601C214.3 601 171.7 601 128.8 601C86 601 43 601 21.5 601L0 601Z" fill="#6a0000"></path></svg>